<svg id="图层_1" data-name="图层 1" xmlns="http://www.w3.org/2000/svg" xmlns:xlink="http://www.w3.org/1999/xlink" viewBox="0 0 405.58 503.03"><defs><style>.cls-1{fill:url(#未命名的渐变_42);}.cls-2{fill:url(#未命名的渐变_38);}.cls-3{fill:url(#未命名的渐变_34);}</style><linearGradient id="未命名的渐变_42" x1="99.37" y1="300.56" x2="504.43" y2="300.56" gradientUnits="userSpaceOnUse"><stop offset="0" stop-color="#5e44d8"/><stop offset="0.28" stop-color="#5037d5"/><stop offset="0.65" stop-color="#422bd3"/><stop offset="1" stop-color="#3e27d2"/></linearGradient><linearGradient id="未命名的渐变_38" x1="240.69" y1="291.66" x2="452.61" y2="291.66" gradientUnits="userSpaceOnUse"><stop offset="0" stop-color="#5359c5"/><stop offset="0.25" stop-color="#5155c5"/><stop offset="0.49" stop-color="#4a49c5"/><stop offset="0.74" stop-color="#3f36c5"/><stop offset="0.98" stop-color="#301ac5"/><stop offset="1" stop-color="#2e17c5"/></linearGradient><linearGradient id="未命名的渐变_34" x1="214.01" y1="320.78" x2="504.95" y2="320.78" gradientUnits="userSpaceOnUse"><stop offset="0" stop-color="#2e17c5"/><stop offset="0.22" stop-color="#311cc5"/><stop offset="0.5" stop-color="#392bc5"/><stop offset="0.8" stop-color="#4744c5"/><stop offset="0.99" stop-color="#5359c5"/></linearGradient></defs><title>b-600</title><path class="cls-1" d="M303.35,147c-.2,0-.41,0-.61,0h-.24a57.54,57.54,0,0,0-1.57,115.05,86.35,86.35,0,1,1-88.56,86.34V96.48a57.37,57.37,0,0,0-113,0h0V348.26h0c0,.43,0,.85,0,1.28,0,111.86,90.67,202.53,202.53,202.53s202.53-90.67,202.53-202.53C504.43,238.18,414.51,147.79,303.35,147Z" transform="translate(-99.37 -49.04)"/><path class="cls-2" d="M433.35,219.58A144.59,144.59,0,0,0,340.84,151l-.26-.05a144.65,144.65,0,0,0-32.35-3.64c-1,0-2,0-2.94,0s-2.06,0-3.1,0c-.24,0-.48,0-.71,0-.75,0-1.51-.05-2.28-.05q-2.48,0-4.9.2a58.61,58.61,0,0,0-11.13,2s0,0,0,0a58.53,58.53,0,0,0,16,114.82H300a85.72,85.72,0,1,1,0,171.44c-.44,0-.87,0-1.31,0,3.16.22,6.36.32,9.58.32A144.41,144.41,0,0,0,433.35,219.58Z" transform="translate(-99.37 -49.04)"/><path class="cls-3" d="M500.27,308.4A203.88,203.88,0,0,0,339.68,150.15,144.93,144.93,0,0,1,307,436.27c-3.11,0-6.22-.1-9.27-.31a143.72,143.72,0,0,1-21.84-3A86.15,86.15,0,0,1,214,365.48,144.21,144.21,0,0,0,229.78,414a146.19,146.19,0,0,0,274.61-56q.56-6.33.56-12.81A146.21,146.21,0,0,0,500.27,308.4Z" transform="translate(-99.37 -49.04)"/></svg>